PathFileType	4	(X/Y/Z)	C:/Users/beibeiliu/ov580/test_trc/User3\sequence.35_training_dense_left.trc
DataRate	CameraRate	NumFrames	NumMarkers	Units	OrigDataRate	OrigDataStartFrame	OrigNumFrames
120	120	23	19	mm	120	134	267
Frame#	Time	ThumbCMC			ThumbMCP			ThumbIP			ThumbTip			IndexMCP			IndexPIP			IndexTip			MiddleMCP			MiddlePIP			MiddleTip			RingMCP			RingPIP			RingTip			PinkyMCP			PinkyPIP			PinkyTip			BackHand1			BackHand2			BackHand3	
		X0	Y0	Z0	X1	Y1	Z1	X2	Y2	Z2	X3	Y3	Z3	X4	Y4	Z4	X5	Y5	Z5	X6	Y6	Z6	X7	Y7	Z7	X8	Y8	Z8	X9	Y9	Z9	X10	Y10	Z10	X11	Y11	Z11	X12	Y12	Z12	X13	Y13	Z13	X14	Y14	Z14	X15	Y15	Z15	X16	Y16	Z16	X17	Y17	Z17	X18	Y18	Z18	
133	1.10833	-181.073	-9.45922	-17.1045	-164.335	-9.5935	-37.6781	-152.414	-12.932	-64.2559	-139.446	-13.4392	-85.902	-222.602	-25.7205	-75.52	-233.434	-28.8987	-100.77	-241.876	-31.1102	-126.307	-236.42	-51.3004	-79.3909	-229.282	-66.9763	-106.891	-209.735	-95.7915	-116.273	-238.331	-71.1652	-63.1713	-223.574	-89.7491	-84.5488	-194.206	-107.4	-80.9167	-239.056	-85.5292	-44.964	-225.323	-104.67	-59.3801	-198.42	-109.96	-56.8497	-242.026	-40.5727	-15.2159	-236.717	-32.8263	12.8595	-220.906	-14.8881	-14.1922	
134	1.11667	-176.956	-18.0587	-12.5952	-162.073	-22.8482	-40.3485	-148.986	-26.5994	-64.7337	-136.713	-31.0428	-82.539	-219.485	-24.9742	-75.5764	-226.02	-22.463	-106.63	-235.392	-28.9781	-126.266	-234.792	-44.8738	-81.3012	-234.542	-62.1718	-106.218	-212.692	-93.4519	-119.665	-241.756	-66.1551	-65.8069	-230.2	-87.7024	-86.8173	-206.676	-112.255	-81.3511	-246.328	-81.7597	-49.9121	-231.065	-99.7364	-63.6145	-206.909	-111.729	-59.0618	-241.871	-39.7101	-20.3833	-236.54	-28.7668	7.27523	-216.02	-13.2721	-17.2885	
135	1.125	-173.812	-22.9183	-10.3516	-157.244	-29.3274	-36.0768	-145.996	-37.0432	-64.7348	-133.419	-42.7152	-82.3936	-217.511	-22.7049	-80.0996	-225.493	-22.1078	-106.578	-232.015	-26.0787	-130.482	-234.501	-40.9534	-81.7365	-233.479	-56.7181	-108.027	-222.106	-95.2688	-119.011	-240.893	-59.4547	-70.8685	-237.583	-86.6447	-87.8606	-215.968	-109.176	-84.0482	-249.279	-72.6739	-47.4498	-240.182	-97.4727	-63.8789	-218.584	-113.311	-58.6916	-240.25	-32.6729	-19.7642	-238.184	-30.0905	8.14292	-211.435	-14.2014	-16.0924	
136	1.13333	-175.985	-30.833	-14.2624	-157.802	-37.4525	-39.5327	-144.912	-44.3372	-61.4535	-137.105	-53.3059	-84.156	-214.363	-20.2049	-80.367	-222.22	-18.6905	-105.703	-227.7	-23.4564	-129.703	-233.93	-36.2718	-83.1017	-233.388	-54.8332	-110.158	-221.157	-90.9106	-118.305	-245.581	-54.5491	-68.1818	-243.086	-76.9299	-87.1478	-224.282	-107.322	-79.916	-255.044	-68.723	-53.2021	-249.037	-92.5653	-63.0034	-222.684	-109.378	-54.8722	-237.759	-28.6355	-17.7478	-236.485	-26.1043	9.74036	-210.459	-15.2879	-15.0667	
137	1.14167	-176.21	-34.5391	-12.7374	-158.788	-44.464	-35.975	-152.544	-54.9078	-64.4916	-148.094	-65.9083	-85.4404	-210.297	-19.9227	-75.8215	-214.084	-19.0257	-108.845	-217.211	-31.1979	-133.716	-230.616	-34.1308	-79.6523	-231.11	-55.2256	-109.763	-224.055	-92.293	-109.595	-247.66	-50.4937	-66.9516	-246.127	-76.6229	-84.5619	-224.01	-102.708	-72.5237	-255.807	-62.7536	-52.874	-249.168	-88.4423	-62.7081	-229.47	-102.679	-51.749	-238.32	-24.9426	-17.9526	-233.791	-25.2214	11.3093	-205.733	-13.7222	-14.7002	
138	1.15	-174.986	-38.1123	-8.49936	-162.598	-51.251	-34.9692	-156.159	-63.7927	-66.8036	-157.378	-77.0318	-84.3922	-207.812	-23.2632	-79.9235	-212.899	-32.2066	-111.451	-208.494	-57.1433	-129.653	-230.037	-37.9317	-84.1194	-225.55	-64.285	-105.362	-215.24	-97.6782	-92.9592	-243.185	-50.6814	-67.8739	-238.353	-80.2272	-81.6552	-224.351	-99.8795	-58.653	-251.969	-61.9133	-55.4127	-245.788	-89.2445	-59.9503	-227.146	-97.5616	-42.5786	-240.605	-23.3856	-22.4063	-231.966	-22.6722	12.073	-203.709	-14.3811	-16.178	
139	1.15833	-172.078	-37.9308	-10.1301	-162.098	-54.0441	-36.6352	-163.026	-69.2357	-62.8069	-168.09	-82.5038	-77.942	-200.17	-33.8138	-83.6064	-199.364	-54.3499	-110.059	-196.072	-81.2312	-113.212	-224.662	-49.9522	-85.2224	-215.996	-76.3391	-97.094	-201.388	-101.167	-69.3617	-236.47	-62.1409	-68.8721	-227.532	-92.8421	-69.5443	-210.259	-95.4456	-41.526	-248.888	-66.1904	-51.038	-238.54	-93.3803	-54.0022	-221.865	-91.0654	-26.9013	-235.885	-25.8758	-20.5846	-234.873	-21.9357	4.94972	-205.172	-15.9113	-13.3259	
140	1.16667	-172.457	-36.3255	-7.66647	-158.123	-54.1843	-30.9095	-158.349	-72.1555	-57.4092	-167.364	-89.7605	-75.2866	-194.097	-47.4285	-81.6078	-187.069	-74.3737	-100.619	-179.009	-100.796	-94.2319	-210.736	-59.97	-78.9493	-200.96	-91.9491	-82.6966	-188.363	-99.2041	-43.8523	-224.157	-71.1849	-66.2072	-209.552	-100.241	-56.7781	-199.017	-90.4371	-28.0165	-238.425	-77.1472	-51.5845	-223.908	-99.6255	-45.0918	-211.742	-88.7992	-22.2443	-233.357	-30.332	-25.0784	-231.99	-23.3132	6.90511	-201.165	-14.2015	-18.5177	
141	1.175	-168.108	-32.3919	-2.9922	-154.739	-51.733	-25.7245	-147.149	-70.6933	-49.864	-157.33	-88.9031	-62.2222	-180.855	-51.1987	-75.8459	-171.148	-77.5494	-89.8243	-155.971	-105.53	-76.8146	-200.349	-68.3473	-73.7776	-178.857	-98.3337	-67.0444	-174.501	-94.359	-29.9104	-213.004	-83.005	-60.5163	-197.893	-103.185	-45.6438	-192.308	-89.5798	-17.2465	-226.07	-88.6597	-49.2573	-209.397	-104.479	-36.8316	-199.77	-84.7878	-9.91243	-229.792	-36.7899	-30.108	-233.604	-26.651	0.410875	-202.201	-18.2108	-16.1892	
142	1.18333	-164.815	-26.0158	3.35978	-147.371	-45.6222	-19.0998	-137.856	-66.3801	-41.1603	-145.613	-87.3032	-53.437	-172.204	-50.8656	-71.6255	-157.755	-79.4075	-81.8073	-142.267	-99.924	-67.0121	-183.406	-71.6542	-69.0476	-166.082	-97.4045	-59.1241	-166.253	-87.5641	-19.1388	-197.425	-82.2103	-54.882	-181.308	-102.638	-37.2145	-176.134	-79.7544	-9.83544	-211.61	-94.3064	-43.3334	-190.47	-103.026	-29.7684	-188.204	-86.0833	-2.79764	-224.18	-40.0075	-27.8924	-233.402	-31.4343	0.0501901	-202.436	-17.6647	-14.2235	
143	1.19167	-167.193	-18.1864	4.27993	-145.401	-36.4731	-13.3955	-128.745	-53.9582	-32.0028	-130.588	-77.4295	-44.0469	-164.17	-47.6455	-66.5194	-143.769	-70.4209	-75.6998	-123.428	-86.491	-57.4351	-173.617	-73.0803	-64.1491	-149.363	-91.0746	-50.8077	-147.693	-77.3785	-13.4656	-184.982	-83.0081	-49.0225	-162.421	-97.6619	-28.1699	-162.819	-79.4747	-4.21095	-198.66	-93.7397	-35.6734	-172.803	-99.8357	-22.824	-173.827	-78.6066	3.29569	-219.481	-43.9767	-28.142	-231.755	-37.7355	2.56007	-203.37	-19.3918	-12.6314	
144	1.2	-171.951	-9.65438	6.8407	-142.023	-21.0363	-10.6657	-122.208	-37.9475	-26.069	-113.995	-62.2376	-37.0186	-159.721	-41.4691	-62.466	-130.008	-56.2295	-68.2934	-106.144	-65.1835	-47.5453	-163.785	-66.495	-58.1235	-134.39	-77.8904	-48.7031	-130.34	-62.7127	-9.33473	-165.854	-80.6069	-43.6863	-144.81	-87.383	-27.5409	-149.681	-66.9679	3.53411	-179.5	-89.3714	-29.2234	-154.319	-91.7629	-13.7308	-155.087	-74.3195	6.87315	-214.233	-49.8607	-23.3759	-229.152	-42.9368	4.96437	-204.253	-19.0484	-14.5144	
145	1.20833	-176.76	-0.332069	4.91257	-146.007	-6.43191	-5.4689	-119.974	-19.5377	-19.2588	-105.923	-38.951	-25.5172	-150.646	-35.35	-57.7064	-122.672	-41.5136	-60.2596	-99.2713	-41.1614	-41.4716	-152.602	-58.7856	-49.7203	-121.304	-61.9582	-40.4016	-116.809	-43.996	-1.41118	-156.011	-69.9047	-35.8809	-128.806	-72.2143	-17.9725	-136.084	-51.4203	8.85088	-158.524	-87.8937	-20.7946	-137.694	-81.3228	-5.4588	-141.387	-60.4749	15.6464	-206.764	-56.6848	-16.3681	-225.332	-50.3971	8.14549	-207.49	-19.6787	-10.6612	
146	1.21667	-186.536	1.08477	9.27442	-154.001	5.13993	-0.361264	-124.693	6.89835	-10.0632	-106.508	-12.481	-14.6725	-146.642	-26.3579	-49.8517	-117.995	-20.6689	-52.1678	-92.1284	-14.1821	-28.0994	-142.202	-44.4589	-44.1052	-110.593	-40.3957	-32.1366	-108.715	-23.549	2.91841	-139.441	-59.4587	-28.2941	-114.367	-51.1009	-8.27594	-122.914	-36.4993	15.5314	-143.878	-74.6809	-10.2508	-122.705	-62.6424	0.107849	-128.476	-39.9589	21.3348	-196.797	-57.2142	-10.4306	-216.917	-55.2364	10.8388	-209.801	-25.9844	-9.38413	
147	1.225	-191.517	5.60257	9.53903	-161.774	19.5178	1.91998	-133.395	17.7093	-7.15576	-107.698	11.9073	-10.9967	-145.158	-12.6682	-45.3826	-115.182	-3.73135	-44.7742	-96.1188	9.06237	-24.4941	-132.182	-33.9884	-34.7766	-105.75	-19.3389	-25.9257	-107.094	-1.69512	8.31314	-131.279	-47.8437	-18.314	-108.224	-30.2651	-3.3952	-121.275	-15.749	24.8335	-130.944	-62.2872	-2.16131	-113.006	-41.5805	9.13578	-123.687	-22.5132	29.896	-184.207	-58.2448	-6.03708	-210.651	-54.639	17.8253	-206.55	-23.7878	-6.26232	
148	1.23333	-199.805	7.3132	9.9062	-169.129	22.8548	-0.725002	-142.227	28.6896	-8.42548	-115.049	27.2899	-10.0886	-144.606	-8.55554	-40.4926	-115.719	5.78246	-40.6187	-99.5531	24.367	-18.47	-130.679	-21.3049	-32.0223	-105.402	-1.24475	-20.742	-112.395	13.4968	14.9757	-123.401	-35.8377	-12.1677	-105.867	-14.4884	1.00191	-124.232	2.89236	24.7708	-124.806	-47.7828	3.28495	-108.604	-25.2749	12.7431	-123.808	-7.75909	33.7108	-175.655	-54.7946	-1.13082	-204.971	-55.1921	20.5193	-202.858	-28.8647	-5.38402	
149	1.24167	-202.036	3.79903	9.77336	-178.718	27.3291	-1.87808	-147.392	35.1332	-13.7689	-120.881	31.1045	-14.0916	-141.397	-2.61007	-40.9595	-118.626	12.6098	-40.7638	-108.145	38.6077	-18.883	-131.234	-15.0462	-29.8339	-106.369	6.96779	-20.4792	-121.985	26.845	15.7837	-123.383	-24.4857	-12.7493	-106.786	-2.367	3.77242	-124.885	8.91803	26.7537	-123.263	-38.5955	6.59307	-106.428	-18.0268	15.5079	-125.704	-0.373184	34.348	-170.534	-53.8796	2.72281	-195.068	-57.8705	25.1029	-202.453	-29.696	-4.87376	
150	1.25	-200.915	1.61952	7.39669	-177.715	23.9752	-6.00195	-154.655	35.322	-15.7354	-127.478	36.4854	-18.6986	-145.673	-3.63656	-41.1688	-121.832	20.5925	-45.7207	-110.253	39.408	-24.3068	-126.796	-13.495	-29.8825	-108.163	12.4866	-18.397	-122.895	28.2462	9.7079	-121.765	-19.0151	-15.4307	-108.446	3.19221	1.87489	-130.414	12.6064	23.4536	-117.832	-34.8816	6.19251	-108.409	-8.95358	14.9522	-128.535	5.98791	34.4484	-171.223	-51.5025	5.09448	-191.402	-55.9671	25.4554	-200.805	-32.6993	-4.02057	
151	1.25833	-201.216	4.83947	4.93287	-176.673	19.5296	-6.74765	-150.317	32.4527	-22.3424	-126.291	29.6735	-23.0257	-147.891	-6.47831	-44.2892	-123.16	14.7208	-50.4353	-110.738	37.6267	-30.6525	-129.714	-17.1762	-32.3808	-107.818	9.8936	-26.3744	-124.69	26.3672	6.82844	-119.289	-21.9887	-17.2496	-108.219	2.27842	-3.01893	-127.35	11.6179	18.8505	-118.118	-32.1991	1.11468	-106.707	-9.35254	11.8922	-125.011	3.40555	30.0456	-166.386	-54.6712	2.92046	-188.241	-57.5624	26.4899	-194.692	-34.4938	-3.38528	
152	1.26667	-196.507	5.99868	7.13809	-174.383	22.105	-4.9502	-149.377	31.1273	-22.8466	-125.035	28.829	-29.6913	-149.402	-6.53465	-50.122	-125.319	12.7688	-57.8537	-109.517	31.6339	-42.3436	-131	-20.2276	-39.544	-109.284	5.64138	-35.7012	-119.6	20.4344	-0.893216	-124.356	-27.4086	-22.8136	-106.033	-5.14446	-11.4073	-127.941	6.41884	15.0412	-116.786	-38.9346	-2.12191	-107.524	-12.8396	3.09407	-125.259	-0.581734	22.7072	-170.63	-53.1325	3.51363	-191.771	-54.4796	24.4474	-198.073	-32.165	-0.830607	
153	1.275	-188.473	8.6926	11.9401	-164.788	24.5923	-5.57173	-141.238	25.7546	-23.7997	-120.425	24.9717	-33.4778	-153.856	-9.27402	-50.3376	-125.458	9.83685	-64.2915	-104.9	25.0712	-47.1208	-135.565	-19.6778	-49.2078	-109.464	-2.04222	-43.0114	-116.988	15.7124	-7.93089	-127.071	-34.4018	-28.021	-105.115	-10.6405	-17.5394	-120.818	1.74056	6.02445	-122.791	-41.7705	-12.4033	-105.831	-20.2077	-2.27881	-120.268	-7.48681	17.2937	-171.462	-52.6534	-2.34393	-191.975	-52.6514	26.5777	-200.081	-26.5606	1.52377	
154	1.28333	-177.971	14.2726	16.4273	-151.983	26.9159	-4.46689	-129.916	27.9969	-27.3775	-113.616	17.0641	-38.0955	-156.277	0.894734	-56.8849	-128.326	8.0199	-67.3924	-104.648	19.4585	-54.9816	-141.723	-20.2051	-51.4784	-112.461	-3.58332	-50.3235	-113.125	8.24581	-10.1494	-135.993	-30.5803	-36.3197	-106.973	-17.9638	-23.2465	-119.106	-6.38192	3.60499	-128.628	-47.5427	-19.8403	-108.588	-26.1661	-13.9313	-116.931	-16.4368	10.1753	-180.306	-43.9893	-4.15227	-193.154	-45.2253	27.0239	-196.886	-13.3507	2.38837	
155	1.29167	-167.655	19.7653	25.5222	-142.953	22.3736	-0.567995	-123.705	26.4502	-23.4929	-108.768	17.084	-44.0666	-160.486	13.6567	-50.8248	-131.703	19.1404	-69.2901	-102.861	20.8246	-57.3998	-149.254	-10.2359	-53.5478	-114.163	-1.32556	-50.4373	-110.383	0.243257	-14.0742	-142.168	-25.2574	-41.4177	-111.533	-22.7886	-32.4382	-118.694	-11.3051	-0.343597	-136.633	-43.1301	-29.949	-113.376	-33.9259	-20.218	-117.137	-22.244	5.78041	-186.978	-33.0703	-4.68248	-197.428	-35.0161	27.7337	-196.24	-4.88771	11.011	
